<?xml version="1.0" encoding="UTF-8"?>
<svg viewBox="0 0 1959.4062 1958.5625" xmlns="http://www.w3.org/2000/svg">
 <path transform="translate(-391.03 -52.688)" d="m2276.7 659.75-44.34-91.849-55.47-88.681-65.82-83.806-75.11-77.291-83.06-69.279-89.47-59.972-94.16-49.622-97.04-38.517-98.13-26.967" fill="none" stroke="#000"/>
 <path transform="translate(-391.03 -52.688)" d="m2339.7 890.18-22.12-97.907-34.6-98.337-46.94-96.994-58.79-93.806-69.82-88.767-79.7-81.949-88.12-73.501-94.87-63.644-99.75-52.655-102.67-40.853-103.63-28.578-102.7-16.164-99.99-3.9311" fill="none" stroke="#000"/>
 <path transform="translate(-391.03 -52.688)" d="m2345.2 1133.8 2.13-95.38-10.3-99.29-23.18-101.67-36.28-102.34-49.22-101.14-61.66-97.976-73.24-92.845-83.58-85.816-92.37-77.045-99.37-66.764-104.36-55.276-107.28-42.921-108.1-30.065-106.91-17.072-103.87-4.2809-99.17 8.0069-93.08 19.544" fill="none" stroke="#000"/>
 <path transform="translate(-391.03 -52.688)" d="m2316.5 1283.3 13.95-91.83 1.9-97.37-10.91-101.58-24.22-104.25-37.75-105.14-51.13-104.1-64-101.01-75.95-95.865-86.61-88.729-95.64-79.765-102.77-69.215-107.81-57.393-110.66-44.661-111.34-31.403-109.92-18.003-106.57-4.8178-101.52 7.8374-95.04 19.704-87.413 30.585" fill="none" stroke="#000"/>
 <path transform="translate(-391.03 -52.688)" d="m2228.5 1506.7 35.14-77.9 24.93-85.54 13.63-92.37 1.37-98.15-11.66-102.61-25.22-105.5-38.99-106.59-52.61-105.7-65.69-102.73-77.83-97.652-88.62-90.527-97.74-81.518-104.9-70.872-109.9-58.911-112.66-46.007-113.17-32.554-111.54-18.948-107.96-5.559-102.64 7.294-95.891 19.342-87.982 30.385-79.214 40.285-69.862 48.967" fill="none" stroke="#000"/>
 <path transform="translate(-391.03 -52.688)" d="m2144.6 1633.4 43.55-68.82 34.44-77.09 24.17-84.81 12.83-91.75 0.52-97.65-12.56-102.25-26.15-105.29-39.94-106.53-53.56-105.8-66.64-102.99-78.73-98.052-89.48-91.059-98.52-82.164-105.57-71.615-110.46-59.729-113.07-46.881-113.43-33.466-111.65-19.881-107.91-6.496-102.43 6.362-95.542 18.428-87.499 29.495-78.617 39.427-69.169 48.145-59.402 55.622" fill="none" stroke="#000"/>
 <path transform="translate(-391.03 -52.688)" d="m2042.7 1744.8 49.99-58.67 42.07-67.16 32.99-75.36 22.79-83.01 11.54-89.93-0.65-95.81-13.55-100.44-26.96-103.53-40.52-104.88-53.91-104.29-66.72-101.66-78.56-96.941-89.04-90.201-97.83-81.585-104.64-71.331-109.33-59.749-111.78-47.2-112-34.07-110.12-20.749-106.32-7.597-100.82 5.062-93.93 16.965-85.922 27.907-77.093 37.752-67.713 46.417-58.029 53.874-48.251 60.133" fill="none" stroke="#000"/>
 <path transform="translate(-391.03 -52.688)" d="m1926.5 1837.9 54.32-48.09 47.59-56.49 39.75-64.75 30.81-72.7 20.8-80.16 9.81-86.87-2.06-92.61-14.59-97.13-27.57-100.19-40.66-101.57-53.54-101.1-65.85-98.666-77.18-94.238-87.19-87.868-95.56-79.691-102.03-69.932-106.42-58.88-108.67-46.875-108.8-34.284-106.89-21.475-103.14-8.794-97.76 3.45-91.031 15-83.227 25.659-74.629 35.286-65.496 43.799-56.064 51.16-46.535 57.379-37.077 62.492" fill="none" stroke="#000"/>
 <path transform="translate(-391.03 -52.688)" d="m1738.7 1940.4 61.26-29.77 56.58-37.69 50.94-45.7 44.31-53.71 36.65-61.59 27.96-69.15 18.3-76.23 7.72-82.61-3.63-88.05-15.57-92.35-27.87-95.27-40.25-96.6-52.38-96.23-63.93-94.001-74.53-89.924-83.87-84.025-91.66-76.436-97.65-67.356-101.7-57.048-103.75-45.824-103.8-34.015-101.95-21.963-98.35-9.986-93.236 1.625-86.836 12.629-79.413 22.835-71.228 32.105-62.52 40.353-53.513 47.537-44.398 53.654-35.333 58.734-26.449 62.823" fill="none" stroke="#000"/>
 <path transform="translate(-391.03 -52.688)" d="m1606.6 1982.8 60.68-20.62 56.87-27.9 52.23-35.35 46.7-42.87 40.25-50.36 32.87-57.7 24.56-64.73 15.38-71.29 5.41-77.17-5.23-82.19-16.36-86.15-27.76-88.82-39.18-90.06-50.32-89.73-60.89-87.73-70.57-84.043-79.07-78.703-86.13-71.826-91.56-63.585-95.21-54.21-97.05-43.973-97.05-33.169-95.33-22.097-92.009-11.047-87.287-0.276-81.373 9.989-74.501 19.572-66.902 28.338-58.794 36.197-50.383 43.105-41.842 49.046-33.322 54.037-24.944 58.113-16.803 61.327-8.971 63.74" fill="none" stroke="#000"/>
 <path transform="translate(-391.03 -52.688)" d="m1413.4 2010.8 60.79-6.19 58.43-12.54 55.36-19.1 51.6-25.85 47.05-32.71 41.7-39.6 35.54-46.45 28.55-53.11 20.77-59.48 12.24-65.37 3.04-70.65-6.69-75.12-16.81-78.62-27.1-80.99-37.36-82.06-47.32-81.76-56.73-79.97-65.31-76.71-72.82-71.997-79.06-65.928-83.84-58.649-87.07-50.357-88.68-41.277-88.69-31.66-87.156-21.761-84.206-11.829-79.995-2.09-74.705 7.258-68.532 16.048-61.676 24.159-54.331 31.499-46.672 38.017-38.861 43.689-31.03 48.516-23.296 52.524-15.747 55.746-8.453 58.232-1.465 60.03 5.182 61.21" fill="none" stroke="#000"/>
 <path transform="translate(-391.03 -52.688)" d="m1231.1 2001.4 57.77 5.22 56.49-0.14 54.65-5.74 52.25-11.52 49.21-17.5 45.54-23.58 41.18-29.75 36.12-35.91 30.35-41.99 23.91-47.86 16.78-53.43 9.06-58.57 0.82-63.13-7.85-66.96-16.76-69.95-25.79-71.92-34.72-72.81-43.34-72.5-51.45-70.93-58.82-68.11-65.25-64.07-70.6-58.87-74.69-52.634-77.46-45.526-78.86-37.723-78.89-29.427-77.601-20.848-75.092-12.188-71.484-3.64-66.924 4.63-61.57 12.474-55.589 19.78-49.141 26.465-42.376 32.468-35.432 37.761-28.429 42.331-21.47 46.187-14.637 49.36-7.999 51.87-1.605 53.75 4.507 55.07 10.309 55.84 15.789 56.12" fill="none" stroke="#000"/>
 <path transform="translate(-391.03 -52.688)" d="m1016.8 1944.7 52.33 17.63 52.26 13.47 51.79 9.07 50.89 4.47 49.51-0.35 47.66-5.34 45.27-10.47 42.34-15.75 38.86-21.08 34.8-26.44 30.15-31.77 24.92-36.97 19.14-41.98 12.83-46.67 6.08-50.96-1.08-54.74-8.51-57.88-16.11-60.3-23.73-61.87-31.21-62.53-38.41-62.2-45.14-60.86-51.23-58.5-56.55-55.13-60.96-50.83-64.35-45.68-66.65-39.8-67.84-33.343-67.905-26.447-66.895-19.279-64.867-12-61.917-4.759-58.155 2.303-53.703 9.067-48.689 15.434-43.241 21.325-37.482 26.679-31.524 31.48-25.469 35.67-19.405 39.29-13.41 42.31-7.544 44.76-1.857 46.68 3.611 48.09 8.834 48.99 13.787 49.46 18.461 49.51 22.843 49.15 26.932 48.45 30.723 47.39" fill="none" stroke="#000"/>
 <path transform="translate(-391.03 -52.688)" d="m964.77 1923.1 52.006 21.58" fill="none" stroke="#000"/>
 <path transform="translate(-391.03 -52.688)" d="m980.481,1920.71 44.869,15.04 44.65,11.38 44.07,7.54 43.1,3.53 41.71-.63 39.9-4.92 37.64-9.32 34.93-13.79 31.76-18.28 28.11-22.76 24.01-27.15 19.46-31.42 14.49-35.47 9.15-39.25 3.48-42.66-2.45-45.62-8.55-48.06-14.73-49.9-20.88-51.06-26.88-51.5-32.6-51.17-37.92-50.04-42.75-48.14-46.93-45.44-50.42-42.04-53.1-37.97-54.95-33.33-55.929-28.21-56.04-22.74-55.304-17.02-53.766-11.18-51.489-5.31-48.551.45-45.036,6.03-41.04,11.34-36.657,16.32-31.978,20.9-27.095,25.06-22.085,28.76-17.024,32.01-11.975,34.77-6.995,37.08-2.13,38.94 2.585,40.35 7.116,41.34 11.44,41.94 15.541,42.16 19.402,42.03 23.015,41.56 26.372,40.77 29.468,39.68 32.298,38.31 34.857,36.68 37.143,34.78 39.148,32.64 40.869,30.26 42.296,27.65 43.421,24.81 44.234,21.77 44.72,18.5" fill="none" stroke="#000"/>
 <path transform="translate(-391.03 -52.688)" d="m946.85 1883.1 36.407 12.05 36.1 9 35.46 5.82 34.5 2.5 33.2-0.91 31.53-4.41 29.53-7.96 27.15-11.54 24.43-15.11 21.35-18.62 17.94-22.04 14.2-25.32 10.2-28.41 5.92-31.24 1.45-33.77-3.16-35.94-7.88-37.69-12.6-38.98-17.25-39.77-21.76-40-26.04-39.69-30.01-38.79-33.58-37.32-36.69-35.3-39.27-32.74-41.29-29.73-42.686-26.27-43.459-22.46-43.601-18.39-43.122-14.09-42.049-9.68-40.42-5.22-38.285-0.79-35.698 3.53-32.723 7.7-29.422 11.65-25.86 15.35-22.102 18.74-18.207 21.82-14.231 24.56-10.225 26.95-6.234 28.99-2.3 30.66 1.544 31.99 5.269 32.99 8.847 33.64 12.263 33.97 15.494 34.02 18.531 33.75 21.359 33.21 23.971 32.41 26.356 31.34 28.507 30.04 30.419 28.51 32.083 26.75 33.491 24.78 34.636 22.6 35.509 20.23 36.103 17.68 36.405 14.95" fill="none" stroke="#000"/>
 <path transform="translate(-391.03 -52.688)" d="m916.81 1831 27.002 8.76 26.662 6.43 26.068 4 25.216 1.49 24.1-1.06 22.74-3.67 21.1-6.3 19.23-8.9 17.09-11.48 14.73-13.99 12.15-16.41 9.37-18.69 6.42-20.81 3.32-22.74 0.12-24.42-3.15-25.85-6.45-26.98-9.72-27.79-12.93-28.24-16-28.33-18.92-28.05-21.59-27.4-24-26.35-26.11-24.97-27.85-23.22-29.228-21.17-30.201-18.84-30.764-16.26-30.91-13.49-30.647-10.57-29.984-7.53-28.943-4.46-27.549-1.37-25.836 1.69-23.838 4.65-21.591 7.51-19.138 10.21-16.517 12.73-13.769 15.06-10.931 17.16-8.038 19.03-5.127 20.66-2.226 22.03 0.636 23.16 3.433 24.03 6.144 24.65 8.748 25.03 11.229 25.16 13.569 25.07 15.758 24.74 17.781 24.21 19.63 23.46 21.294 22.5 22.764 21.37 24.033 20.03 25.092 18.54 25.936 16.87 26.554 15.05 26.943 13.08 27.095 10.98" fill="none" stroke="#000"/>
 <path transform="translate(-391.03 -52.688)" d="m891.331,1764 16.738,5.28 16.454,3.77 16.005,2.24 15.389.64 14.61-.96 13.671-2.58 12.579-4.19 11.333-5.78 9.96-7.32 8.45-8.82 6.84-10.23 5.1-11.55 3.31-12.76 1.44-13.84-.46-14.76-2.4-15.54-4.31-16.12-6.2-16.53-8.03-16.73-9.77-16.75-11.43-16.53-12.926-16.13-14.285-15.52-15.467-14.72-16.458-13.72-17.241-12.56-17.81-11.24-18.154-9.78-18.273-8.22-18.165-6.56-17.837-4.83-17.294-3.06-16.548-1.27-15.614.52-14.507,2.28-13.244,4-11.846,5.64-10.332,7.19-8.724,8.66-7.041,9.99-5.306,11.21-3.538,12.28-1.755,13.22 .021,13.99 1.776,14.63 3.491,15.09 5.153,15.41 6.746,15.56 8.259,15.57 9.679,15.42 10.995,15.12 12.198,14.68 13.279,14.1 14.23,13.38 15.044,12.55 15.714,11.58 16.235,10.51 16.601,9.33 16.809,8.06 16.856,6.7" fill="none" stroke="#000"/>
 <path transform="translate(-391.03 -52.688)" d="m871.399,1682.14 5.732,1.74 5.61,1.2 5.427.66 5.186.11 4.889-.45 4.537-1 4.136-1.55 3.687-2.08 3.198-2.6 2.669-3.08 2.11-3.53 1.525-3.95 .92-4.32 .302-4.66-.322-4.93-.945-5.16-1.56-5.32-2.159-5.43-2.736-5.48-3.283-5.46-3.794-5.38-4.263-5.24-4.683-5.04-5.051-4.78-5.361-4.47-5.609-4.11-5.792-3.69-5.911-3.24-5.96-2.75-5.942-2.23-5.856-1.69-5.704-1.13-5.489-.55-5.211.02-4.876.6-4.489,1.16-4.053,1.72-3.574,2.24-3.058,2.74-2.51,3.21-1.939,3.65-1.347,4.03-.745,4.38-.138,4.67 .47,4.92 1.068,5.1 1.654,5.25 2.221,5.32 2.761,5.34 3.271,5.31 3.745,5.23 4.18,5.08 4.57,4.88 4.912,4.63 5.201,4.34 5.437,3.99 5.616,3.61 5.735,3.19 5.796,2.73 5.795,2.25" fill="none" stroke="#000"/>
 <path transform="translate(-391.03 -52.688)" d="m998.35 1934.4-35.072-30.71-31.954-44.79-27.885-59.5-22.828-74.45-16.8-89.14" fill="none" stroke="#000"/>
 <path transform="translate(-391.03 -52.688)" d="m1047.1 1950.8-43.03-33.51-40.897-47.95-37.732-62.9-33.481-77.97-28.119-92.65" fill="none" stroke="#000"/>
 <path transform="translate(-391.03 -52.688)" d="m1147 1985-51.38-21.83-51.13-35.75-49.904-50.43-47.568-65.54-44.026-80.6-39.221-95.12" fill="none" stroke="#000"/>
 <path transform="translate(-391.03 -52.688)" d="m1202.3 1994.8-58.64-23.23-59.3-37.39-58.92-52.22-57.312-67.34-54.367-82.3-49.99-96.53" fill="none" stroke="#000"/>
 <path transform="translate(-391.03 -52.688)" d="m1320.3 2010.3-63.5-10.62-65.99-24.07-67.51-38.39-67.87-53.25-66.892-68.29-64.404-83.01-60.313-96.86" fill="none" stroke="#000"/>
 <path transform="translate(-391.03 -52.688)" d="m1379.9 2010.2-70.03-10.75-73.39-24.33-75.68-38.68-76.7-53.49-76.2-68.33-74.039-82.72-70.08-96.09" fill="none" stroke="#000"/>
 <path transform="translate(-391.03 -52.688)" d="m1509.3 2001.9-71.53 2.34-76.62-10.33-80.78-23.93-83.76-38.24-85.3-52.87-85.16-67.44-83.158-81.4-79.181-94.23" fill="none" stroke="#000"/>
 <path transform="translate(-391.03 -52.688)" d="m1570.5 1988.8-77.28 3.35-83.2-9.31-88.1-22.84-91.66-36.99-93.59-51.38-93.66-65.56-91.662-79.04-87.517-91.29" fill="none" stroke="#000"/>
 <path transform="translate(-391.03 -52.688)" d="m1704 1952.6-75.44 16.39-83.01 4.9-89.74-7.63-95.26-21-99.28-34.9-101.48-48.94-101.59-62.7-99.449-75.64-94.99-87.28" fill="none" stroke="#000"/>
 <path transform="translate(-391.03 -52.688)" d="m1834.4 1895.2-71.2 28.48-80.28 18.35-88.7 7.06-96.12-5.26-102.18-18.35-106.53-31.92-108.83-45.56-108.85-58.81-106.42-71.2-101.51-82.25" fill="none" stroke="#000"/>
 <path transform="translate(-391.03 -52.688)" d="m1957.5 1817.3-64.69 39.22-75.1 30.66-85.06 20.84-94.25 9.86-102.28-2.13-108.74-14.86-113.27-28.02-115.55-41.18-115.32-53.91-112.47-65.75-107-76.23" fill="none" stroke="#000"/>
 <path transform="translate(-391.03 -52.688)" d="m2013.2 1768.2-67.61 41.39-78.93 33.27-89.7 23.89-99.56 13.34-108.08 1.78-114.82-10.48-119.41-23.16-121.5-35.81-120.9-48.01-117.5-59.3-111.39-69.29" fill="none" stroke="#000"/>
 <path transform="translate(-391.03 -52.688)" d="m2120.2 1660.4-58.06 50.09-70.46 43.88-82.61 36.34-94.1 27.52-104.53 17.52-113.42 6.53-120.3-5.21-124.79-17.33-126.58-29.44-125.46-41.12-121.43-51.93-114.62-61.48" fill="none" stroke="#000"/>
 <path transform="translate(-391.03 -52.688)" d="m2209.9 1536-46.82 56.29-59.98 52.13-73.17 46.67-86.06 39.87-98.18 31.76-109.04 22.44-118.15 12.1-125.04 1-129.29-10.55-130.63-22.1-128.91-33.29-124.19-43.67-116.64-52.9" fill="none" stroke="#000"/>
 <path transform="translate(-391.03 -52.688)" d="m2279.2 1398.8-34.37 59.62-47.9 57.57-61.8 54.32-75.7 49.77-89.2 43.86-101.8 36.61-112.95 28.1-122.15 18.51-128.88 8.09-132.77-2.82-133.56-13.84-131.16-24.57-125.7-34.61-117.42-43.63" fill="none" stroke="#000"/>
 <path transform="translate(-391.03 -52.688)" d="m2325.5 1253.5-21.3 59.77-34.81 59.81-48.97 58.83-63.49 56.65-77.96 53.16-91.93 48.3-104.85 42.05-116.14 34.47-125.26 25.73-131.7 16.06-135.09 5.79-135.25-4.71-132.13-15.05-125.91-24.84-116.94-33.77" fill="none" stroke="#000"/>
 <path transform="translate(-391.03 -52.688)" d="m2339.5 1162.4-21.39 58.66-35.37 59.85-50.02 60.05-65 59.09-79.89 56.83-94.15 53.15-107.21 48.04-118.46 41.51-127.34 33.69-133.35 24.84-136.16 15.21-135.61 5.2-131.73-4.83-124.8-14.47-115.19-23.43" fill="none" stroke="#000"/>
 <path transform="translate(-391.03 -52.688)" d="m2349.9 1011.7-8.41 54.12-21.77 57.27-36.06 59.7-51.03 61.21-66.3 61.6-81.39 60.72-95.76 58.37-108.76 54.52-119.79 49.14-128.27 42.33-133.72 34.31-135.85 25.34-134.55 15.76-129.95 5.99-122.33-3.63-112.19-12.72" fill="none" stroke="#000"/>
 <path transform="translate(-391.03 -52.688)" d="m2339.9 914.04-8.95 51.236-22.45 55.598-36.89 59.35-51.99 62.29-67.32 64.16-82.42 64.76-96.65 63.88-109.4 61.4-120.02 57.26-127.93 51.53-132.71 44.36-134.1 36.02-132.04 26.85-126.73 17.24-118.53 7.57-107.96-1.77" fill="none" stroke="#000"/>
 <path transform="translate(-391.03 -52.688)" d="m2314.9 771.92 2.34 42.183-10 48.045-23.47 53.665-37.86 58.821-52.86 63.262-68.04 66.71-82.89 68.9-96.77 69.57-109.03 68.56-119.04 65.73-126.26 61.12-130.25 54.82-130.86 47.11-128.05 38.3-122.1 28.78-113.42 18.98-102.53 9.29" fill="none" stroke="#000"/>
 <path transform="translate(-391.03 -52.688)" d="m2281.2 675.98 0.58 37.644-11.58 44.621-24.83 51.523-38.96 58.112-53.64 64.104-68.42 69.191-82.76 73.04-96.04 75.34-107.6 75.84-116.82 74.39-123.18 70.92-126.33 65.51-126.11 58.41-122.61 49.91-116.08 40.45-107.03 30.44-95.982 20.34" fill="none" stroke="#000"/>
 <path transform="translate(-391.03 -52.688)" d="m2235.5 581.45-1.87 32.978-13.69 41.048-26.53 49.221-40.19 57.24-54.3 64.799-68.42 71.537-82.01 77.075-94.44 81.043-105.07 83.1-113.33 83.03-118.72 80.73-120.95 76.21-119.91 69.7-115.73 61.51-108.75 52.05-99.437 41.81-88.372 31.24" fill="none" stroke="#000"/>
 <path transform="translate(-391.03 -52.688)" d="m2173.1 470.43 5.27 19.664-4.98 28.307-16.3 37.424-28.56 46.822-41.52 56.234-54.83 65.323-68.04 73.693-80.62 80.904-91.97 86.518-101.47 90.137-108.6 91.46-112.92 90.32-114.16 86.69-112.32 80.78-107.54 72.87-100.18 63.41-90.739 52.91-79.79 41.87" fill="none" stroke="#000"/>
 <path transform="translate(-391.03 -52.688)" d="m2109.4 389.39 1.02 14.325-8.7 23.766-19.38 33.853-30.87 44.398-42.93 55.122-55.21 65.665-67.28 75.593-78.61 84.415-88.66 91.627-96.86 96.764-102.71 99.455-105.86 99.45-106.1 96.73-103.46 91.4-98.13 83.79-90.5 74.35-81.054 63.59-70.335 52.09" fill="none" stroke="#000"/>
 <path transform="translate(-391.03 -52.688)" d="m2036.8 314.67-3.86 9.333-12.95 19.483-22.86 30.442-33.42 42.022-44.38 53.94-55.43 65.815-66.14 77.181-76.04 87.502-84.6 96.217-91.32 102.8-95.79 106.79-97.69 107.92-96.91 106.07-93.5 101.36-87.67 94.06-79.857 84.67-70.492 73.72-60.12 61.78" fill="none" stroke="#000"/>
 <path transform="translate(-391.03 -52.688)" d="m1956.6 247.71-9.27 4.825-17.63 15.582-26.63 27.293-36.12 39.767-45.84 52.724-55.49 65.768-64.67 78.409-72.96 90.073-79.88 100.15-85.01 108.06-88 113.29-88.61 115.5-86.78 114.51-82.62 110.43-76.36 103.5-68.401 94.22-59.214 83.12-49.264 70.83" fill="none" stroke="#000"/>
 <path transform="translate(-391.03 -52.688)" d="m1870.1 189.75-15.05 0.919-22.6 12.172-30.61 24.491-38.91 37.699-47.26 51.509-55.38 65.526-62.91 79.24-69.46 92.056-74.63 103.33-78.09 112.42-79.54 118.78-78.83 122-75.95 121.87-71.04 118.44-64.38 111.93-56.348 102.83-47.372 91.68-37.899 79.13" fill="none" stroke="#000"/>
 <path transform="translate(-391.03 -52.688)" d="m1779 141.77-21.05-2.291-27.73 9.334-34.66 22.111-41.7 35.868-48.61 50.329-55.11 65.094-60.9 79.655-65.65 93.399-69.02 105.66-70.75 115.77-70.64 123.13-68.58 127.29-64.65 127.99-59.02 125.23-51.962 119.21-43.871 110.36-35.136 99.28-26.16 86.58" fill="none" stroke="#000"/>
 <path transform="translate(-391.03 -52.688)" d="m1658 99.767-32.87 7.1258-38.69 20.199-44.41 34.317-49.83 49.208-54.68 64.487-58.71 79.647-61.64 94.077-63.19 107.1-63.2 118.04-61.51 126.26-58.13 131.26-53.15 132.76-46.78 130.68-39.342 125.21-31.181 116.73-22.677 105.81-14.189 93.09" fill="none" stroke="#000"/>
 <path transform="translate(-391.03 -52.688)" d="m1557 71.981-37.88 5.5742-42.56 18.782-46.97 33.066-50.9 48.169-54.11 63.72-56.4 79.226-57.53 94.093-57.31 107.65-55.62 119.21-52.4 128.12-47.706 133.87-41.685 136.11-34.591 134.72-26.738 129.85-18.48 121.84-10.17 111.2-2.129 98.59" fill="none" stroke="#000"/>
 <path transform="translate(-391.03 -52.688)" d="m1456.8 56.262-42.64 4.678-46.2 17.863-49.31 32.125-51.77 47.226-53.41 62.812-54.03 78.418-53.44 93.472-51.52 107.32-48.21 119.29-43.511 128.74-37.542 135.1-30.5 138.02-22.667 137.33-14.372 133.09-5.968 125.61 2.213 115.39 9.878 103.02" fill="none" stroke="#000"/>
 <path transform="translate(-391.03 -52.688)" d="m1312.1 56.856-49.5 17.423-51.37 31.487-52.46 46.384-52.6 61.786-51.65 77.259-49.45 92.263-45.954 106.18-41.119 118.35-35.03 128.15-27.844 135-19.806 138.52-11.225 138.49-2.447 134.91 6.171 128.06 14.307 118.33 21.688 106.32" fill="none" stroke="#000"/>
 <path transform="translate(-391.03 -52.688)" d="m1214.5 64.818-52.42 17.427-53.11 31.134-52.93 45.646-51.7 60.666-49.313 75.793-45.659 90.529-40.707 104.3-34.486 116.47-27.11 126.44-18.783 133.65-9.783 137.67-0.448 138.24 8.856 135.35 17.764 129.15 25.954 120.01 33.166 108.47" fill="none" stroke="#000"/>
 <path transform="translate(-391.03 -52.688)" d="m1067.9 101.93-54.54 31.039-53.178 45.01-50.728 59.473-47.059 74.071-42.111 88.347-35.873 101.77-28.411 113.76-19.871 123.74-10.491 131.15-0.576 135.56 9.511 136.68 19.381 134.43 28.657 128.92 37.011 120.43 44.179 109.45" fill="none" stroke="#000"/>
 <path transform="translate(-391.03 -52.688)" d="m981.16 132.37-55.611 31.17-53.234 44.468-49.702 58.234-44.925 72.145-38.856 85.797-31.506 98.708-22.963 110.35-13.397 120.16-3.064 127.63 7.707 132.32 18.53 133.9 29 132.25 38.721 127.4 47.346 119.61 54.603 109.26" fill="none" stroke="#000"/>
 <path transform="translate(-391.03 -52.688)" d="m846.38 203.95-53.092 44.014-48.644 56.967-42.932 70.069-35.922 82.96-27.64 95.215-18.183 106.35-7.735 115.86 3.436 123.24 14.99 128.07 26.524 130.01 37.616 128.89 47.846 124.69 56.846 117.59 64.322 107.9" fill="none" stroke="#000"/>
 <path transform="translate(-391.03 -52.688)" d="m723.68 296.63-47.57 55.693-41.096 67.891-33.325 79.917-24.287 91.397-14.087 101.9-2.907 110.96 8.984 118.12 21.235 122.97 33.44 125.15 45.156 124.47 55.947 120.85 65.413 114.41 73.231 105.41" fill="none" stroke="#000"/>
 <path transform="translate(-391.03 -52.688)" d="m617.32 407.2-39.426 65.656-31.066 76.739-21.447 87.353-10.667 97.117 1.096 105.62 13.577 112.43 26.433 117.16 39.25 119.45 51.58 119.1 62.96 115.99 72.966 110.15 81.238 101.82" fill="none" stroke="#000"/>
 <path transform="translate(-391.03 -52.688)" d="m530.44 531.73-29.138 73.492-19.101 83.173-7.9 92.114 4.297 99.948 17.241 106.29 30.596 110.77 43.957 113.07 56.865 112.91 68.846 110.2 79.444 104.9 88.259 97.17" fill="none" stroke="#000"/>
 <path transform="translate(-391.03 -52.688)" d="m492.6 595.73-27.529 70.232-17.223 78.933-5.752 86.988 6.739 94.074 20.014 99.843 33.76 103.96 47.578 106.11 61.017 106.04 73.584 103.59 84.799 98.73 94.227 91.54" fill="none" stroke="#000"/>
 <path transform="translate(-391.03 -52.688)" d="m437.92 730.78-15.783 74.701-4.178 81.824 8.47 88.093 21.95 93.203 35.972 96.84 50.154 98.72 64.051 98.59 77.17 96.29 89.006 91.73 99.084 85" fill="none" stroke="#000"/>
 <path transform="translate(-391.03 -52.688)" d="m404.81 869.26-3.133 76.691 9.546 82.091 23.11 86.46 37.289 89.53 51.733 91.02 66.004 90.69 79.617 88.39 92.047 84.03 102.79 77.61" fill="none" stroke="#000"/>
 <path transform="translate(-391.03 -52.688)" d="m392.97 1007 10.026 76.14 23.555 79.71 37.777 82.12 52.371 83.1 66.922 82.46 80.949 80.02 93.924 75.69 105.31 69.48" fill="none" stroke="#000"/>
 <path transform="translate(-391.03 -52.688)" d="m391.52 1069.9 9.967 70.3 23.348 73.02 37.503 74.69 52.132 75.07 66.855 73.99 81.202 71.27 94.648 66.85 106.64 60.69" fill="none" stroke="#000"/>
 <path transform="translate(-391.03 -52.688)" d="m406.36 1198.4 22.555 66.45 36.529 67.31 51.082 67.01 65.861 65.37 80.419 62.26 94.242 57.58 106.76 51.35" fill="none" stroke="#000"/>
 <path transform="translate(-391.03 -52.688)" d="m417.29 1257.4 21.23 60.04 34.92 60.06 49.284 58.99 64 56.7 78.652 53.05 92.738 48.01 105.7 41.55" fill="none" stroke="#000"/>
 <path transform="translate(-391.03 -52.688)" d="m453.36 1370.3 32.735 52.95 46.799 51.07 61.333 48.04 75.952 43.77 90.178 38.21 103.46 31.41" fill="none" stroke="#000"/>
 <path transform="translate(-391.03 -52.688)" d="m473.12 1423.2 30.029 46.06 43.687 43.29 57.919 39.46 72.376 34.47 86.608 28.31 100.08 21.02" fill="none" stroke="#000"/>
 <path transform="translate(-391.03 -52.688)" d="m524.33 1514.9 40.001 35.72 53.817 31.02 67.982 25.24 82.081 18.37 95.599 10.5" fill="none" stroke="#000"/>
 <path transform="translate(-391.03 -52.688)" d="m549.38 1560 35.791 28.37 49.081 22.77 62.828 16.13 76.654 8.5 90.077-0.04" fill="none" stroke="#000"/>
 <path transform="translate(-391.03 -52.688)" d="m578.01 1604.2 31.103 21.28 43.762 14.76 56.971 7.23 70.39-1.24 83.572-10.49" fill="none" stroke="#000"/>
 <path transform="translate(-391.03 -52.688)" d="m609.95 1647.2 25.975 14.47 37.909 7.01 50.469-1.42 63.353-10.74 76.154-20.76" fill="none" stroke="#000"/>
 <path transform="translate(-391.03 -52.688)" d="m644.91 1688.7 20.442 7.96 31.568-0.42 43.378-9.76 55.61-19.93 67.901-30.74" fill="none" stroke="#000"/>
 <path transform="translate(-391.03 -52.688)" d="m682.61 1728.3 14.538 1.78 24.78-7.5 35.753-17.74 47.232-28.76 58.898-40.32" fill="none" stroke="#000"/>
 <path transform="translate(-391.03 -52.688)" d="m722.76 1765.9 8.288-4.05 17.586-14.22 27.65-25.3 38.291-37.14 49.237-49.42" fill="none" stroke="#000"/>
 <path transform="translate(-391.03 -52.688)" d="m765.07 1801.2 1.719-9.53 10.026-20.52 19.123-32.41 28.861-45 39.015-57.94" fill="none" stroke="#000"/>
 <path transform="translate(-391.03 -52.688)" d="m809.24 1833.9-5.144-14.62 2.135-26.39 10.226-39.01 19.021-52.29 28.334-65.8" fill="none" stroke="#000"/>
 <path transform="translate(-391.03 -52.688)" d="m854.97 1863.8-12.28-19.32-6.048-31.78 1.018-45.07 8.848-58.93 17.301-72.92" fill="none" stroke="#000"/>
 <path transform="translate(-391.03 -52.688)" d="m901.95 1890.7-19.664-23.59-14.485-36.66-8.443-50.54-1.575-64.87 6.025-79.23" fill="none" stroke="#000"/>
 <path transform="translate(-391.03 -52.688)" d="m949.86 1914.2-27.27-27.39-23.135-41.01-18.099-55.36-12.163-70.06-5.38-84.66" fill="none" stroke="#000"/>
 <path transform="translate(-391.03 -52.688)" d="m998.35 1934.4-35.072-30.71-31.954-44.79-27.885-59.5-22.828-74.45-16.8-89.14" fill="none" stroke="#000"/>
</svg>
